<?xml version="1.0" standalone="no"?>
<!DOCTYPE svg PUBLIC "-//W3C//DTD SVG 20010904//EN"
 "http://www.w3.org/TR/2001/REC-SVG-20010904/DTD/svg10.dtd">
<svg version="1.0" xmlns="http://www.w3.org/2000/svg"
 width="700.000000pt" height="700.000000pt" viewBox="0 0 700.000000 700.000000"
 preserveAspectRatio="xMidYMid meet">
<metadata>
Created by potrace 1.14, written by Peter Selinger 2001-2017
</metadata>
<g transform="translate(0.000000,700.000000) scale(0.100000,-0.100000)"
fill="#000000" stroke="none">
<path d="M2666 5997 c-19 -63 -136 -476 -141 -497 -2 -8 -40 -141 -85 -295
-44 -154 -83 -288 -85 -298 -2 -10 -33 -121 -69 -245 -280 -980 -376 -1321
-376 -1335 0 -18 14 -29 290 -227 102 -73 202 -146 223 -162 44 -34 61 -28 71
25 3 17 15 61 26 97 21 69 172 601 195 685 21 77 213 751 235 825 50 169 278
973 286 1009 3 14 7 28 10 32 12 20 -21 55 -126 130 -63 45 -178 128 -255 184
-194 141 -180 136 -199 72z"/>
<path d="M3870 6037 c0 -1 -41 -144 -91 -317 -49 -173 -92 -324 -94 -335 -3
-11 -14 -49 -24 -85 -86 -282 -351 -1235 -347 -1245 5 -15 8 -17 271 -206 99
-72 193 -140 209 -152 47 -37 75 -51 82 -44 6 5 264 893 279 957 2 8 36 128
75 265 39 138 96 338 126 445 30 107 61 216 70 242 8 26 14 57 12 68 -5 30
-568 435 -568 407z"/>
<path d="M5005 5710 c-6 -9 -65 -211 -136 -465 -31 -111 -44 -158 -104 -365
-71 -246 -94 -328 -101 -362 -7 -29 -15 -22 196 -173 45 -33 104 -76 131 -95
26 -19 57 -42 69 -50 12 -8 51 -36 87 -62 36 -27 69 -48 73 -48 12 0 23 35
110 345 45 160 86 304 91 320 37 115 156 552 152 561 -2 6 -85 69 -184 140
-98 71 -220 159 -271 197 -96 70 -103 74 -113 57z"/>
<path d="M4535 4069 c-5 -15 -194 -674 -200 -699 -2 -8 -96 -341 -210 -740
-114 -399 -211 -738 -216 -755 -15 -58 -47 -171 -93 -330 -51 -177 -54 -202
-28 -221 25 -20 380 -276 406 -294 12 -8 46 -32 75 -54 30 -22 56 -35 61 -30
5 5 56 178 115 384 58 206 115 404 125 440 36 120 362 1264 377 1320 8 30 28
100 44 155 16 55 34 116 39 135 5 19 13 46 17 60 4 14 8 30 9 35 2 11 42 151
50 173 4 14 -34 55 -75 82 -13 8 -29 20 -35 25 -6 6 -34 26 -61 45 -28 19 -54
38 -60 43 -18 14 -285 207 -310 223 -20 13 -26 14 -30 3z"/>
<path d="M3111 3368 c-46 -161 -92 -322 -102 -358 -10 -36 -30 -105 -44 -155
-14 -49 -28 -97 -30 -105 -2 -8 -58 -206 -125 -440 -67 -234 -124 -432 -126
-440 -2 -8 -15 -57 -30 -108 -14 -52 -24 -95 -22 -96 12 -10 222 -164 376
-275 101 -73 187 -130 190 -126 5 4 249 844 283 975 5 19 11 42 14 50 2 8 62
220 134 472 72 251 131 467 131 480 0 19 -50 59 -271 218 -149 107 -276 196
-283 198 -8 2 -42 -102 -95 -290z"/>
<path d="M1785 2890 c-6 -10 -67 -213 -104 -350 -35 -126 -203 -716 -222 -779
-10 -35 -19 -71 -19 -81 0 -15 221 -183 468 -354 32 -22 63 -46 70 -53 24 -24
27 -18 66 117 144 496 306 1079 304 1094 -2 13 -71 70 -193 157 -104 76 -224
162 -265 192 -95 68 -97 70 -105 57z"/>
</g>
</svg>
